<svg width="801" height="817" viewBox="0 0 801 817" fill="none" xmlns="http://www.w3.org/2000/svg">
<path d="M568.442 723.728V749H562.286V733.844L556.634 749H551.666L545.978 733.808V749H539.822V723.728H547.094L554.186 741.224L561.206 723.728H568.442ZM582.013 749.288C580.045 749.288 578.269 748.868 576.685 748.028C575.125 747.188 573.889 745.988 572.977 744.428C572.089 742.868 571.645 741.044 571.645 738.956C571.645 736.892 572.101 735.08 573.013 733.52C573.925 731.936 575.173 730.724 576.757 729.884C578.341 729.044 580.117 728.624 582.085 728.624C584.053 728.624 585.829 729.044 587.413 729.884C588.997 730.724 590.245 731.936 591.157 733.52C592.069 735.08 592.525 736.892 592.525 738.956C592.525 741.02 592.057 742.844 591.121 744.428C590.209 745.988 588.949 747.188 587.341 748.028C585.757 748.868 583.981 749.288 582.013 749.288ZM582.013 743.96C583.189 743.96 584.185 743.528 585.001 742.664C585.841 741.8 586.261 740.564 586.261 738.956C586.261 737.348 585.853 736.112 585.037 735.248C584.245 734.384 583.261 733.952 582.085 733.952C580.885 733.952 579.889 734.384 579.097 735.248C578.305 736.088 577.909 737.324 577.909 738.956C577.909 740.564 578.293 741.8 579.061 742.664C579.853 743.528 580.837 743.96 582.013 743.96ZM601.947 731.756C602.523 730.82 603.351 730.064 604.431 729.488C605.511 728.912 606.747 728.624 608.139 728.624C609.795 728.624 611.295 729.044 612.639 729.884C613.983 730.724 615.039 731.924 615.807 733.484C616.599 735.044 616.995 736.856 616.995 738.92C616.995 740.984 616.599 742.808 615.807 744.392C615.039 745.952 613.983 747.164 612.639 748.028C611.295 748.868 609.795 749.288 608.139 749.288C606.723 749.288 605.487 749.012 604.431 748.46C603.375 747.884 602.547 747.128 601.947 746.192V749H595.791V722.36H601.947V731.756ZM610.731 738.92C610.731 737.384 610.299 736.184 609.435 735.32C608.595 734.432 607.551 733.988 606.303 733.988C605.079 733.988 604.035 734.432 603.171 735.32C602.331 736.208 601.911 737.42 601.911 738.956C601.911 740.492 602.331 741.704 603.171 742.592C604.035 743.48 605.079 743.924 606.303 743.924C607.527 743.924 608.571 743.48 609.435 742.592C610.299 741.68 610.731 740.456 610.731 738.92ZM623.32 726.824C622.24 726.824 621.352 726.512 620.656 725.888C619.984 725.24 619.648 724.448 619.648 723.512C619.648 722.552 619.984 721.76 620.656 721.136C621.352 720.488 622.24 720.164 623.32 720.164C624.376 720.164 625.24 720.488 625.912 721.136C626.608 721.76 626.956 722.552 626.956 723.512C626.956 724.448 626.608 725.24 625.912 725.888C625.24 726.512 624.376 726.824 623.32 726.824ZM626.38 728.912V749H620.224V728.912H626.38ZM636.997 722.36V749H630.841V722.36H636.997ZM660.395 738.632C660.395 739.208 660.359 739.808 660.287 740.432H646.355C646.451 741.68 646.847 742.64 647.543 743.312C648.263 743.96 649.139 744.284 650.171 744.284C651.707 744.284 652.775 743.636 653.375 742.34H659.927C659.591 743.66 658.979 744.848 658.091 745.904C657.227 746.96 656.135 747.788 654.815 748.388C653.495 748.988 652.019 749.288 650.387 749.288C648.419 749.288 646.667 748.868 645.131 748.028C643.595 747.188 642.395 745.988 641.531 744.428C640.667 742.868 640.235 741.044 640.235 738.956C640.235 736.868 640.655 735.044 641.495 733.484C642.359 731.924 643.559 730.724 645.095 729.884C646.631 729.044 648.395 728.624 650.387 728.624C652.331 728.624 654.059 729.032 655.571 729.848C657.083 730.664 658.259 731.828 659.099 733.34C659.963 734.852 660.395 736.616 660.395 738.632ZM654.095 737.012C654.095 735.956 653.735 735.116 653.015 734.492C652.295 733.868 651.395 733.556 650.315 733.556C649.283 733.556 648.407 733.856 647.687 734.456C646.991 735.056 646.559 735.908 646.391 737.012H654.095ZM486.096 777.728C488.76 777.728 491.088 778.256 493.08 779.312C495.072 780.368 496.608 781.856 497.688 783.776C498.792 785.672 499.344 787.868 499.344 790.364C499.344 792.836 498.792 795.032 497.688 796.952C496.608 798.872 495.06 800.36 493.044 801.416C491.052 802.472 488.736 803 486.096 803H476.628V777.728H486.096ZM485.7 797.672C488.028 797.672 489.84 797.036 491.136 795.764C492.432 794.492 493.08 792.692 493.08 790.364C493.08 788.036 492.432 786.224 491.136 784.928C489.84 783.632 488.028 782.984 485.7 782.984H482.784V797.672H485.7ZM521.721 792.632C521.721 793.208 521.685 793.808 521.613 794.432H507.681C507.777 795.68 508.173 796.64 508.869 797.312C509.589 797.96 510.465 798.284 511.497 798.284C513.033 798.284 514.101 797.636 514.701 796.34H521.253C520.917 797.66 520.305 798.848 519.417 799.904C518.553 800.96 517.461 801.788 516.141 802.388C514.821 802.988 513.345 803.288 511.713 803.288C509.745 803.288 507.993 802.868 506.457 802.028C504.921 801.188 503.721 799.988 502.857 798.428C501.993 796.868 501.561 795.044 501.561 792.956C501.561 790.868 501.981 789.044 502.821 787.484C503.685 785.924 504.885 784.724 506.421 783.884C507.957 783.044 509.721 782.624 511.713 782.624C513.657 782.624 515.385 783.032 516.897 783.848C518.409 784.664 519.585 785.828 520.425 787.34C521.289 788.852 521.721 790.616 521.721 792.632ZM515.421 791.012C515.421 789.956 515.061 789.116 514.341 788.492C513.621 787.868 512.721 787.556 511.641 787.556C510.609 787.556 509.733 787.856 509.013 788.456C508.317 789.056 507.885 789.908 507.717 791.012H515.421ZM534.004 797.24L538.36 782.912H544.912L537.784 803H530.188L523.06 782.912H529.648L534.004 797.24ZM566.439 792.632C566.439 793.208 566.403 793.808 566.331 794.432H552.399C552.495 795.68 552.891 796.64 553.587 797.312C554.307 797.96 555.183 798.284 556.215 798.284C557.751 798.284 558.819 797.636 559.419 796.34H565.971C565.635 797.66 565.023 798.848 564.135 799.904C563.271 800.96 562.179 801.788 560.859 802.388C559.539 802.988 558.063 803.288 556.431 803.288C554.463 803.288 552.711 802.868 551.175 802.028C549.639 801.188 548.439 799.988 547.575 798.428C546.711 796.868 546.279 795.044 546.279 792.956C546.279 790.868 546.699 789.044 547.539 787.484C548.403 785.924 549.603 784.724 551.139 783.884C552.675 783.044 554.439 782.624 556.431 782.624C558.375 782.624 560.103 783.032 561.615 783.848C563.127 784.664 564.303 785.828 565.143 787.34C566.007 788.852 566.439 790.616 566.439 792.632ZM560.139 791.012C560.139 789.956 559.779 789.116 559.059 788.492C558.339 787.868 557.439 787.556 556.359 787.556C555.327 787.556 554.451 787.856 553.731 788.456C553.035 789.056 552.603 789.908 552.435 791.012H560.139ZM575.843 776.36V803H569.687V776.36H575.843ZM589.448 803.288C587.48 803.288 585.704 802.868 584.12 802.028C582.56 801.188 581.324 799.988 580.412 798.428C579.524 796.868 579.08 795.044 579.08 792.956C579.08 790.892 579.536 789.08 580.448 787.52C581.36 785.936 582.608 784.724 584.192 783.884C585.776 783.044 587.552 782.624 589.52 782.624C591.488 782.624 593.264 783.044 594.848 783.884C596.432 784.724 597.68 785.936 598.592 787.52C599.504 789.08 599.96 790.892 599.96 792.956C599.96 795.02 599.492 796.844 598.556 798.428C597.644 799.988 596.384 801.188 594.776 802.028C593.192 802.868 591.416 803.288 589.448 803.288ZM589.448 797.96C590.624 797.96 591.62 797.528 592.436 796.664C593.276 795.8 593.696 794.564 593.696 792.956C593.696 791.348 593.288 790.112 592.472 789.248C591.68 788.384 590.696 787.952 589.52 787.952C588.32 787.952 587.324 788.384 586.532 789.248C585.74 790.088 585.344 791.324 585.344 792.956C585.344 794.564 585.728 795.8 586.496 796.664C587.288 797.528 588.272 797.96 589.448 797.96ZM609.382 785.756C609.982 784.82 610.81 784.064 611.866 783.488C612.922 782.912 614.158 782.624 615.574 782.624C617.23 782.624 618.73 783.044 620.074 783.884C621.418 784.724 622.474 785.924 623.242 787.484C624.034 789.044 624.43 790.856 624.43 792.92C624.43 794.984 624.034 796.808 623.242 798.392C622.474 799.952 621.418 801.164 620.074 802.028C618.73 802.868 617.23 803.288 615.574 803.288C614.182 803.288 612.946 803 611.866 802.424C610.81 801.848 609.982 801.104 609.382 800.192V812.576H603.226V782.912H609.382V785.756ZM618.166 792.92C618.166 791.384 617.734 790.184 616.87 789.32C616.03 788.432 614.986 787.988 613.738 787.988C612.514 787.988 611.47 788.432 610.606 789.32C609.766 790.208 609.346 791.42 609.346 792.956C609.346 794.492 609.766 795.704 610.606 796.592C611.47 797.48 612.514 797.924 613.738 797.924C614.962 797.924 616.006 797.48 616.87 796.592C617.734 795.68 618.166 794.456 618.166 792.92ZM653.292 782.696C655.788 782.696 657.768 783.452 659.232 784.964C660.72 786.476 661.464 788.576 661.464 791.264V803H655.344V792.092C655.344 790.796 654.996 789.8 654.3 789.104C653.628 788.384 652.692 788.024 651.492 788.024C650.292 788.024 649.344 788.384 648.648 789.104C647.976 789.8 647.64 790.796 647.64 792.092V803H641.52V792.092C641.52 790.796 641.172 789.8 640.476 789.104C639.804 788.384 638.868 788.024 637.668 788.024C636.468 788.024 635.52 788.384 634.824 789.104C634.152 789.8 633.816 790.796 633.816 792.092V803H627.66V782.912H633.816V785.432C634.44 784.592 635.256 783.932 636.264 783.452C637.272 782.948 638.412 782.696 639.684 782.696C641.196 782.696 642.54 783.02 643.716 783.668C644.916 784.316 645.852 785.24 646.524 786.44C647.22 785.336 648.168 784.436 649.368 783.74C650.568 783.044 651.876 782.696 653.292 782.696ZM684.705 792.632C684.705 793.208 684.669 793.808 684.597 794.432H670.665C670.761 795.68 671.157 796.64 671.853 797.312C672.573 797.96 673.449 798.284 674.481 798.284C676.017 798.284 677.085 797.636 677.685 796.34H684.237C683.901 797.66 683.289 798.848 682.401 799.904C681.537 800.96 680.445 801.788 679.125 802.388C677.805 802.988 676.329 803.288 674.697 803.288C672.729 803.288 670.977 802.868 669.441 802.028C667.905 801.188 666.705 799.988 665.841 798.428C664.977 796.868 664.545 795.044 664.545 792.956C664.545 790.868 664.965 789.044 665.805 787.484C666.669 785.924 667.869 784.724 669.405 783.884C670.941 783.044 672.705 782.624 674.697 782.624C676.641 782.624 678.369 783.032 679.881 783.848C681.393 784.664 682.569 785.828 683.409 787.34C684.273 788.852 684.705 790.616 684.705 792.632ZM678.405 791.012C678.405 789.956 678.045 789.116 677.325 788.492C676.605 787.868 675.705 787.556 674.625 787.556C673.593 787.556 672.717 787.856 671.997 788.456C671.301 789.056 670.869 789.908 670.701 791.012H678.405ZM700.193 782.696C702.545 782.696 704.417 783.464 705.809 785C707.225 786.512 707.933 788.6 707.933 791.264V803H701.813V792.092C701.813 790.748 701.465 789.704 700.769 788.96C700.073 788.216 699.137 787.844 697.961 787.844C696.785 787.844 695.849 788.216 695.153 788.96C694.457 789.704 694.109 790.748 694.109 792.092V803H687.953V782.912H694.109V785.576C694.733 784.688 695.573 783.992 696.629 783.488C697.685 782.96 698.873 782.696 700.193 782.696ZM723.407 797.78V803H720.275C718.043 803 716.303 802.46 715.055 801.38C713.807 800.276 713.183 798.488 713.183 796.016V788.024H710.735V782.912H713.183V778.016H719.339V782.912H723.371V788.024H719.339V796.088C719.339 796.688 719.483 797.12 719.771 797.384C720.059 797.648 720.539 797.78 721.211 797.78H723.407Z" fill="#126E82"/>
<path d="M670 494.776H668.457V452.48C668.457 445.987 665.88 439.761 661.293 435.17C656.706 430.579 650.485 428 643.997 428H554.46C551.248 428 548.067 428.633 545.1 429.863C542.132 431.094 539.436 432.897 537.164 435.17C534.893 437.443 533.091 440.142 531.862 443.112C530.633 446.082 530 449.265 530 452.48V684.52C530 687.735 530.633 690.918 531.862 693.888C533.091 696.858 534.893 699.557 537.164 701.83C539.435 704.103 542.132 705.906 545.099 707.137C548.067 708.367 551.248 709 554.46 709H643.997C647.209 709 650.39 708.367 653.358 707.137C656.325 705.906 659.022 704.103 661.293 701.83C663.564 699.557 665.366 696.858 666.595 693.888C667.825 690.918 668.457 687.735 668.457 684.52V524.883H670V494.776Z" fill="#3F3D56"/>
<path d="M645.517 434H633.691C634.235 435.322 634.443 436.757 634.296 438.178C634.149 439.599 633.652 440.962 632.849 442.147C632.045 443.333 630.961 444.304 629.69 444.976C628.419 445.647 627.001 445.998 625.561 445.999H573.659C572.219 445.998 570.801 445.647 569.53 444.976C568.259 444.304 567.174 443.333 566.371 442.147C565.568 440.962 565.071 439.599 564.924 438.178C564.777 436.757 564.985 435.322 565.528 434H554.483C549.581 434 544.88 435.931 541.414 439.369C537.947 442.807 536 447.47 536 452.332V684.668C536 687.076 536.478 689.46 537.407 691.684C538.336 693.908 539.697 695.929 541.413 697.631C543.13 699.333 545.167 700.683 547.41 701.605C549.652 702.526 552.056 703 554.483 703H645.517C650.419 703 655.12 701.069 658.586 697.631C662.053 694.193 664 689.53 664 684.668V452.332C664 449.924 663.522 447.54 662.593 445.316C661.664 443.092 660.303 441.071 658.586 439.369C656.87 437.667 654.833 436.317 652.59 435.395C650.348 434.474 647.944 434 645.517 434H645.517ZM643.53 541.783C643.527 543.041 643.021 544.246 642.124 545.136C641.227 546.026 640.011 546.527 638.743 546.531H615.604C614.335 546.527 613.12 546.026 612.223 545.136C611.325 544.246 610.82 543.041 610.816 541.783V540.596C610.82 539.337 611.325 538.132 612.223 537.242C613.12 536.352 614.335 535.851 615.604 535.847H638.743C640.011 535.851 641.227 536.352 642.124 537.242C643.021 538.132 643.527 539.337 643.53 540.596V541.783ZM646.123 520.811C646.12 522.069 645.614 523.275 644.717 524.165C643.82 525.054 642.605 525.556 641.336 525.559H558.354C557.085 525.556 555.87 525.054 554.973 524.165C554.076 523.275 553.57 522.069 553.567 520.811V519.624C553.57 518.366 554.076 517.16 554.973 516.271C555.87 515.381 557.085 514.879 558.354 514.876H641.336C642.605 514.879 643.82 515.381 644.717 516.271C645.614 517.16 646.12 518.366 646.123 519.624V520.811ZM646.123 499.84C646.12 501.098 645.614 502.303 644.717 503.193C643.82 504.083 642.605 504.584 641.336 504.588H558.354C557.085 504.584 555.87 504.083 554.973 503.193C554.076 502.303 553.57 501.098 553.567 499.84V498.653C553.57 497.394 554.076 496.189 554.973 495.299C555.87 494.409 557.085 493.908 558.354 493.904H641.336C642.605 493.908 643.82 494.409 644.717 495.299C645.614 496.189 646.12 497.394 646.123 498.653V499.84ZM646.123 478.868C646.12 480.126 645.614 481.332 644.717 482.222C643.82 483.111 642.605 483.613 641.336 483.616H558.354C557.085 483.613 555.87 483.111 554.973 482.222C554.076 481.332 553.57 480.126 553.567 478.868V477.681C553.57 476.423 554.076 475.217 554.973 474.328C555.87 473.438 557.085 472.937 558.354 472.933H641.336C642.605 472.937 643.82 473.438 644.717 474.328C645.614 475.217 646.12 476.423 646.123 477.681V478.868Z" fill="white"/>
<path d="M560.5 524C561.881 524 563 522.881 563 521.5C563 520.119 561.881 519 560.5 519C559.119 519 558 520.119 558 521.5C558 522.881 559.119 524 560.5 524Z" fill="white"/>
<path d="M570 524C571.657 524 573 522.881 573 521.5C573 520.119 571.657 519 570 519C568.343 519 567 520.119 567 521.5C567 522.881 568.343 524 570 524Z" fill="white"/>
<path d="M578.5 524C579.881 524 581 522.881 581 521.5C581 520.119 579.881 519 578.5 519C577.119 519 576 520.119 576 521.5C576 522.881 577.119 524 578.5 524Z" fill="white"/>
<path d="M587.5 524C588.881 524 590 522.881 590 521.5C590 520.119 588.881 519 587.5 519C586.119 519 585 520.119 585 521.5C585 522.881 586.119 524 587.5 524Z" fill="white"/>
<path d="M617 545C618.657 545 620 543.657 620 542C620 540.343 618.657 539 617 539C615.343 539 614 540.343 614 542C614 543.657 615.343 545 617 545Z" fill="#51C4D3"/>
<path d="M626.5 545C627.881 545 629 543.657 629 542C629 540.343 627.881 539 626.5 539C625.119 539 624 540.343 624 542C624 543.657 625.119 545 626.5 545Z" fill="#51C4D3"/>
<path d="M635.5 545C636.881 545 638 543.657 638 542C638 540.343 636.881 539 635.5 539C634.119 539 633 540.343 633 542C633 543.657 634.119 545 635.5 545Z" fill="#51C4D3"/>
<path d="M645.722 578H552.278C550.082 578 547.977 578.871 546.424 580.421C544.872 581.971 544 584.074 544 586.266V631.734C544 633.926 544.872 636.029 546.424 637.579C547.977 639.129 550.082 640 552.278 640H645.722C647.918 640 650.023 639.129 651.576 637.579C653.128 636.029 654 633.926 654 631.734V586.266C654 584.074 653.128 581.971 651.576 580.421C650.023 578.871 647.918 578 645.722 578H645.722ZM549.966 583.639C550.15 583.606 554.526 582.862 558.149 585.039C561.772 587.216 563.164 591.426 563.221 591.604L563.368 592.057L562.898 592.141C562.227 592.245 561.549 592.295 560.87 592.289C558.716 592.331 556.591 591.796 554.714 590.74C551.091 588.564 549.699 584.354 549.642 584.176L549.495 583.722L549.966 583.639ZM570.25 625.852H553.583C552.368 625.852 551.202 625.37 550.342 624.512C549.483 623.653 549 622.489 549 621.275C549 620.061 549.483 618.897 550.342 618.039C551.202 617.18 552.368 616.698 553.583 616.698H570.25C571.466 616.698 572.631 617.18 573.491 618.039C574.35 618.897 574.833 620.061 574.833 621.275C574.833 622.489 574.35 623.653 573.491 624.512C572.631 625.37 571.466 625.852 570.25 625.852ZM646.083 625.02C646.079 626.343 645.551 627.611 644.615 628.547C643.678 629.482 642.408 630.01 641.083 630.013H628.583C627.258 630.01 625.989 629.482 625.052 628.547C624.115 627.611 623.587 626.343 623.583 625.02V617.53C623.587 616.207 624.115 614.939 625.052 614.004C625.989 613.068 627.258 612.541 628.583 612.537H641.083C642.408 612.541 643.678 613.068 644.615 614.004C645.551 614.939 646.079 616.207 646.083 617.53L646.083 625.02Z" fill="#126E82"/>
<path d="M633.425 624H627.575C627.157 624 626.757 624.105 626.461 624.293C626.166 624.48 626 624.735 626 625C626 625.265 626.166 625.52 626.461 625.707C626.757 625.895 627.157 626 627.575 626H633.425C633.843 626 634.243 625.895 634.539 625.707C634.834 625.52 635 625.265 635 625C635 624.735 634.834 624.48 634.539 624.293C634.243 624.105 633.843 624 633.425 624Z" fill="#3F3D56"/>
<path d="M642.6 624H637.4C637.029 624 636.673 624.105 636.41 624.293C636.148 624.48 636 624.735 636 625C636 625.265 636.148 625.52 636.41 625.707C636.673 625.895 637.029 626 637.4 626H642.6C642.971 626 643.327 625.895 643.59 625.707C643.852 625.52 644 625.265 644 625C644 624.735 643.852 624.48 643.59 624.293C643.327 624.105 642.971 624 642.6 624Z" fill="#3F3D56"/>
<path d="M633.425 620H627.575C627.157 620 626.757 620.158 626.461 620.439C626.166 620.721 626 621.102 626 621.5C626 621.898 626.166 622.279 626.461 622.561C626.757 622.842 627.157 623 627.575 623H633.425C633.843 623 634.243 622.842 634.539 622.561C634.834 622.279 635 621.898 635 621.5C635 621.102 634.834 620.721 634.539 620.439C634.243 620.158 633.843 620 633.425 620Z" fill="#3F3D56"/>
<path d="M642.6 620H637.4C637.029 620 636.673 620.158 636.41 620.439C636.148 620.721 636 621.102 636 621.5C636 621.898 636.148 622.279 636.41 622.561C636.673 622.842 637.029 623 637.4 623H642.6C642.971 623 643.327 622.842 643.59 622.561C643.852 622.279 644 621.898 644 621.5C644 621.102 643.852 620.721 643.59 620.439C643.327 620.158 642.971 620 642.6 620H642.6Z" fill="#3F3D56"/>
<path d="M633.425 616H627.575C627.157 616 626.757 616.158 626.461 616.439C626.166 616.721 626 617.102 626 617.5C626 617.898 626.166 618.279 626.461 618.561C626.757 618.842 627.157 619 627.575 619H633.425C633.843 619 634.243 618.842 634.539 618.561C634.834 618.279 635 617.898 635 617.5C635 617.102 634.834 616.721 634.539 616.439C634.243 616.158 633.843 616 633.425 616Z" fill="#3F3D56"/>
<path d="M642.6 616H637.4C637.029 616 636.673 616.158 636.41 616.439C636.148 616.721 636 617.102 636 617.5C636 617.898 636.148 618.279 636.41 618.561C636.673 618.842 637.029 619 637.4 619H642.6C642.971 619 643.327 618.842 643.59 618.561C643.852 618.279 644 617.898 644 617.5C644 617.102 643.852 616.721 643.59 616.439C643.327 616.158 642.971 616 642.6 616H642.6Z" fill="#3F3D56"/>
<path d="M13.2493 551.66V556.772H21.4933V561.524H13.2493V567.068H22.5733V572H7.09333V546.728H22.5733V551.66H13.2493ZM52.2019 551.696C54.6979 551.696 56.6779 552.452 58.1419 553.964C59.6299 555.476 60.3739 557.576 60.3739 560.264V572H54.2539V561.092C54.2539 559.796 53.9059 558.8 53.2099 558.104C52.5379 557.384 51.6019 557.024 50.4019 557.024C49.2019 557.024 48.2539 557.384 47.5579 558.104C46.8859 558.8 46.5499 559.796 46.5499 561.092V572H40.4299V561.092C40.4299 559.796 40.0819 558.8 39.3859 558.104C38.7139 557.384 37.7779 557.024 36.5779 557.024C35.3779 557.024 34.4299 557.384 33.7339 558.104C33.0619 558.8 32.7259 559.796 32.7259 561.092V572H26.5699V551.912H32.7259V554.432C33.3499 553.592 34.1659 552.932 35.1739 552.452C36.1819 551.948 37.3219 551.696 38.5939 551.696C40.1059 551.696 41.4499 552.02 42.6259 552.668C43.8259 553.316 44.7619 554.24 45.4339 555.44C46.1299 554.336 47.0779 553.436 48.2779 552.74C49.4779 552.044 50.7859 551.696 52.2019 551.696ZM70.8353 554.756C71.4113 553.82 72.2393 553.064 73.3193 552.488C74.3993 551.912 75.6353 551.624 77.0273 551.624C78.6833 551.624 80.1833 552.044 81.5273 552.884C82.8713 553.724 83.9273 554.924 84.6953 556.484C85.4873 558.044 85.8833 559.856 85.8833 561.92C85.8833 563.984 85.4873 565.808 84.6953 567.392C83.9273 568.952 82.8713 570.164 81.5273 571.028C80.1833 571.868 78.6833 572.288 77.0273 572.288C75.6113 572.288 74.3753 572.012 73.3193 571.46C72.2633 570.884 71.4353 570.128 70.8353 569.192V572H64.6793V545.36H70.8353V554.756ZM79.6193 561.92C79.6193 560.384 79.1873 559.184 78.3233 558.32C77.4833 557.432 76.4393 556.988 75.1913 556.988C73.9673 556.988 72.9233 557.432 72.0593 558.32C71.2193 559.208 70.7993 560.42 70.7993 561.956C70.7993 563.492 71.2193 564.704 72.0593 565.592C72.9233 566.48 73.9673 566.924 75.1913 566.924C76.4153 566.924 77.4593 566.48 78.3233 565.592C79.1873 564.68 79.6193 563.456 79.6193 561.92ZM108.049 561.632C108.049 562.208 108.013 562.808 107.941 563.432H94.0089C94.1049 564.68 94.5009 565.64 95.1969 566.312C95.9169 566.96 96.7929 567.284 97.8249 567.284C99.3609 567.284 100.429 566.636 101.029 565.34H107.581C107.245 566.66 106.633 567.848 105.745 568.904C104.881 569.96 103.789 570.788 102.469 571.388C101.149 571.988 99.6729 572.288 98.0409 572.288C96.0729 572.288 94.3209 571.868 92.7849 571.028C91.2489 570.188 90.0489 568.988 89.1849 567.428C88.3209 565.868 87.8889 564.044 87.8889 561.956C87.8889 559.868 88.3089 558.044 89.1489 556.484C90.0129 554.924 91.2129 553.724 92.7489 552.884C94.2849 552.044 96.0489 551.624 98.0409 551.624C99.9849 551.624 101.713 552.032 103.225 552.848C104.737 553.664 105.913 554.828 106.753 556.34C107.617 557.852 108.049 559.616 108.049 561.632ZM101.749 560.012C101.749 558.956 101.389 558.116 100.669 557.492C99.9489 556.868 99.0489 556.556 97.9689 556.556C96.9369 556.556 96.0609 556.856 95.3409 557.456C94.6449 558.056 94.2129 558.908 94.0449 560.012H101.749ZM110.072 561.92C110.072 559.856 110.456 558.044 111.224 556.484C112.016 554.924 113.084 553.724 114.428 552.884C115.772 552.044 117.272 551.624 118.928 551.624C120.248 551.624 121.448 551.9 122.528 552.452C123.632 553.004 124.496 553.748 125.12 554.684V545.36H131.276V572H125.12V569.12C124.544 570.08 123.716 570.848 122.636 571.424C121.58 572 120.344 572.288 118.928 572.288C117.272 572.288 115.772 571.868 114.428 571.028C113.084 570.164 112.016 568.952 111.224 567.392C110.456 565.808 110.072 563.984 110.072 561.92ZM125.12 561.956C125.12 560.42 124.688 559.208 123.824 558.32C122.984 557.432 121.952 556.988 120.728 556.988C119.504 556.988 118.46 557.432 117.596 558.32C116.756 559.184 116.336 560.384 116.336 561.92C116.336 563.456 116.756 564.68 117.596 565.592C118.46 566.48 119.504 566.924 120.728 566.924C121.952 566.924 122.984 566.48 123.824 565.592C124.688 564.704 125.12 563.492 125.12 561.956ZM134.506 561.92C134.506 559.856 134.89 558.044 135.658 556.484C136.45 554.924 137.518 553.724 138.862 552.884C140.206 552.044 141.706 551.624 143.362 551.624C144.682 551.624 145.882 551.9 146.962 552.452C148.066 553.004 148.93 553.748 149.554 554.684V545.36H155.71V572H149.554V569.12C148.978 570.08 148.15 570.848 147.07 571.424C146.014 572 144.778 572.288 143.362 572.288C141.706 572.288 140.206 571.868 138.862 571.028C137.518 570.164 136.45 568.952 135.658 567.392C134.89 565.808 134.506 563.984 134.506 561.92ZM149.554 561.956C149.554 560.42 149.122 559.208 148.258 558.32C147.418 557.432 146.386 556.988 145.162 556.988C143.938 556.988 142.894 557.432 142.03 558.32C141.19 559.184 140.77 560.384 140.77 561.92C140.77 563.456 141.19 564.68 142.03 565.592C142.894 566.48 143.938 566.924 145.162 566.924C146.386 566.924 147.418 566.48 148.258 565.592C149.122 564.704 149.554 563.492 149.554 561.956ZM179.1 561.632C179.1 562.208 179.064 562.808 178.992 563.432H165.06C165.156 564.68 165.552 565.64 166.248 566.312C166.968 566.96 167.844 567.284 168.876 567.284C170.412 567.284 171.48 566.636 172.08 565.34H178.632C178.296 566.66 177.684 567.848 176.796 568.904C175.932 569.96 174.84 570.788 173.52 571.388C172.2 571.988 170.724 572.288 169.092 572.288C167.124 572.288 165.372 571.868 163.836 571.028C162.3 570.188 161.1 568.988 160.236 567.428C159.372 565.868 158.94 564.044 158.94 561.956C158.94 559.868 159.36 558.044 160.2 556.484C161.064 554.924 162.264 553.724 163.8 552.884C165.336 552.044 167.1 551.624 169.092 551.624C171.036 551.624 172.764 552.032 174.276 552.848C175.788 553.664 176.964 554.828 177.804 556.34C178.668 557.852 179.1 559.616 179.1 561.632ZM172.8 560.012C172.8 558.956 172.44 558.116 171.72 557.492C171 556.868 170.1 556.556 169.02 556.556C167.988 556.556 167.112 556.856 166.392 557.456C165.696 558.056 165.264 558.908 165.096 560.012H172.8ZM181.123 561.92C181.123 559.856 181.507 558.044 182.275 556.484C183.067 554.924 184.135 553.724 185.479 552.884C186.823 552.044 188.323 551.624 189.979 551.624C191.299 551.624 192.499 551.9 193.579 552.452C194.683 553.004 195.547 553.748 196.171 554.684V545.36H202.327V572H196.171V569.12C195.595 570.08 194.767 570.848 193.687 571.424C192.631 572 191.395 572.288 189.979 572.288C188.323 572.288 186.823 571.868 185.479 571.028C184.135 570.164 183.067 568.952 182.275 567.392C181.507 565.808 181.123 563.984 181.123 561.92ZM196.171 561.956C196.171 560.42 195.739 559.208 194.875 558.32C194.035 557.432 193.003 556.988 191.779 556.988C190.555 556.988 189.511 557.432 188.647 558.32C187.807 559.184 187.387 560.384 187.387 561.92C187.387 563.456 187.807 564.68 188.647 565.592C189.511 566.48 190.555 566.924 191.779 566.924C193.003 566.924 194.035 566.48 194.875 565.592C195.739 564.704 196.171 563.492 196.171 561.956ZM223.554 572.252C221.706 572.252 220.05 571.952 218.586 571.352C217.122 570.752 215.946 569.864 215.058 568.688C214.194 567.512 213.738 566.096 213.69 564.44H220.242C220.338 565.376 220.662 566.096 221.214 566.6C221.766 567.08 222.486 567.32 223.374 567.32C224.286 567.32 225.006 567.116 225.534 566.708C226.062 566.276 226.326 565.688 226.326 564.944C226.326 564.32 226.11 563.804 225.678 563.396C225.27 562.988 224.754 562.652 224.13 562.388C223.53 562.124 222.666 561.824 221.538 561.488C219.906 560.984 218.574 560.48 217.542 559.976C216.51 559.472 215.622 558.728 214.878 557.744C214.134 556.76 213.762 555.476 213.762 553.892C213.762 551.54 214.614 549.704 216.318 548.384C218.022 547.04 220.242 546.368 222.978 546.368C225.762 546.368 228.006 547.04 229.71 548.384C231.414 549.704 232.326 551.552 232.446 553.928H225.786C225.738 553.112 225.438 552.476 224.886 552.02C224.334 551.54 223.626 551.3 222.762 551.3C222.018 551.3 221.418 551.504 220.962 551.912C220.506 552.296 220.278 552.86 220.278 553.604C220.278 554.42 220.662 555.056 221.43 555.512C222.198 555.968 223.398 556.46 225.03 556.988C226.662 557.54 227.982 558.068 228.99 558.572C230.022 559.076 230.91 559.808 231.654 560.768C232.398 561.728 232.77 562.964 232.77 564.476C232.77 565.916 232.398 567.224 231.654 568.4C230.934 569.576 229.878 570.512 228.486 571.208C227.094 571.904 225.45 572.252 223.554 572.252ZM257.078 551.912L244.478 581.54H237.854L242.462 571.316L234.29 551.912H241.166L245.81 564.476L250.418 551.912H257.078ZM267.476 572.288C265.724 572.288 264.164 571.988 262.796 571.388C261.428 570.788 260.348 569.972 259.556 568.94C258.764 567.884 258.32 566.708 258.224 565.412H264.308C264.38 566.108 264.704 566.672 265.28 567.104C265.856 567.536 266.564 567.752 267.404 567.752C268.172 567.752 268.76 567.608 269.168 567.32C269.6 567.008 269.816 566.612 269.816 566.132C269.816 565.556 269.516 565.136 268.916 564.872C268.316 564.584 267.344 564.272 266 563.936C264.56 563.6 263.36 563.252 262.4 562.892C261.44 562.508 260.612 561.92 259.916 561.128C259.22 560.312 258.872 559.22 258.872 557.852C258.872 556.7 259.184 555.656 259.808 554.72C260.456 553.76 261.392 553.004 262.616 552.452C263.864 551.9 265.34 551.624 267.044 551.624C269.564 551.624 271.544 552.248 272.984 553.496C274.448 554.744 275.288 556.4 275.504 558.464H269.816C269.72 557.768 269.408 557.216 268.88 556.808C268.376 556.4 267.704 556.196 266.864 556.196C266.144 556.196 265.592 556.34 265.208 556.628C264.824 556.892 264.632 557.264 264.632 557.744C264.632 558.32 264.932 558.752 265.532 559.04C266.156 559.328 267.116 559.616 268.412 559.904C269.9 560.288 271.112 560.672 272.048 561.056C272.984 561.416 273.8 562.016 274.496 562.856C275.216 563.672 275.588 564.776 275.612 566.168C275.612 567.344 275.276 568.4 274.604 569.336C273.956 570.248 273.008 570.968 271.76 571.496C270.536 572.024 269.108 572.288 267.476 572.288ZM290.574 566.78V572H287.442C285.21 572 283.47 571.46 282.222 570.38C280.974 569.276 280.35 567.488 280.35 565.016V557.024H277.902V551.912H280.35V547.016H286.506V551.912H290.538V557.024H286.506V565.088C286.506 565.688 286.65 566.12 286.938 566.384C287.226 566.648 287.706 566.78 288.378 566.78H290.574ZM312.939 561.632C312.939 562.208 312.903 562.808 312.831 563.432H298.899C298.995 564.68 299.391 565.64 300.087 566.312C300.807 566.96 301.683 567.284 302.715 567.284C304.251 567.284 305.319 566.636 305.919 565.34H312.471C312.135 566.66 311.523 567.848 310.635 568.904C309.771 569.96 308.679 570.788 307.359 571.388C306.039 571.988 304.563 572.288 302.931 572.288C300.963 572.288 299.211 571.868 297.675 571.028C296.139 570.188 294.939 568.988 294.075 567.428C293.211 565.868 292.779 564.044 292.779 561.956C292.779 559.868 293.199 558.044 294.039 556.484C294.903 554.924 296.103 553.724 297.639 552.884C299.175 552.044 300.939 551.624 302.931 551.624C304.875 551.624 306.603 552.032 308.115 552.848C309.627 553.664 310.803 554.828 311.643 556.34C312.507 557.852 312.939 559.616 312.939 561.632ZM306.639 560.012C306.639 558.956 306.279 558.116 305.559 557.492C304.839 556.868 303.939 556.556 302.859 556.556C301.827 556.556 300.951 556.856 300.231 557.456C299.535 558.056 299.103 558.908 298.935 560.012H306.639ZM341.819 551.696C344.315 551.696 346.295 552.452 347.759 553.964C349.247 555.476 349.991 557.576 349.991 560.264V572H343.871V561.092C343.871 559.796 343.523 558.8 342.827 558.104C342.155 557.384 341.219 557.024 340.019 557.024C338.819 557.024 337.871 557.384 337.175 558.104C336.503 558.8 336.167 559.796 336.167 561.092V572H330.047V561.092C330.047 559.796 329.699 558.8 329.003 558.104C328.331 557.384 327.395 557.024 326.195 557.024C324.995 557.024 324.047 557.384 323.351 558.104C322.679 558.8 322.343 559.796 322.343 561.092V572H316.187V551.912H322.343V554.432C322.967 553.592 323.783 552.932 324.791 552.452C325.799 551.948 326.939 551.696 328.211 551.696C329.723 551.696 331.067 552.02 332.243 552.668C333.443 553.316 334.379 554.24 335.051 555.44C335.747 554.336 336.695 553.436 337.895 552.74C339.095 552.044 340.403 551.696 341.819 551.696ZM362.468 572.288C360.716 572.288 359.156 571.988 357.788 571.388C356.42 570.788 355.34 569.972 354.548 568.94C353.756 567.884 353.312 566.708 353.216 565.412H359.3C359.372 566.108 359.696 566.672 360.272 567.104C360.848 567.536 361.556 567.752 362.396 567.752C363.164 567.752 363.752 567.608 364.16 567.32C364.592 567.008 364.808 566.612 364.808 566.132C364.808 565.556 364.508 565.136 363.908 564.872C363.308 564.584 362.336 564.272 360.992 563.936C359.552 563.6 358.352 563.252 357.392 562.892C356.432 562.508 355.604 561.92 354.908 561.128C354.212 560.312 353.864 559.22 353.864 557.852C353.864 556.7 354.176 555.656 354.8 554.72C355.448 553.76 356.384 553.004 357.608 552.452C358.856 551.9 360.332 551.624 362.036 551.624C364.556 551.624 366.536 552.248 367.976 553.496C369.44 554.744 370.28 556.4 370.496 558.464H364.808C364.712 557.768 364.4 557.216 363.872 556.808C363.368 556.4 362.696 556.196 361.856 556.196C361.136 556.196 360.584 556.34 360.2 556.628C359.816 556.892 359.624 557.264 359.624 557.744C359.624 558.32 359.924 558.752 360.524 559.04C361.148 559.328 362.108 559.616 363.404 559.904C364.892 560.288 366.104 560.672 367.04 561.056C367.976 561.416 368.792 562.016 369.488 562.856C370.208 563.672 370.58 564.776 370.604 566.168C370.604 567.344 370.268 568.4 369.596 569.336C368.948 570.248 368 570.968 366.752 571.496C365.528 572.024 364.1 572.288 362.468 572.288ZM75.0965 600.728C77.7605 600.728 80.0885 601.256 82.0805 602.312C84.0725 603.368 85.6085 604.856 86.6885 606.776C87.7925 608.672 88.3445 610.868 88.3445 613.364C88.3445 615.836 87.7925 618.032 86.6885 619.952C85.6085 621.872 84.0605 623.36 82.0445 624.416C80.0525 625.472 77.7365 626 75.0965 626H65.6285V600.728H75.0965ZM74.7005 620.672C77.0285 620.672 78.8405 620.036 80.1365 618.764C81.4325 617.492 82.0805 615.692 82.0805 613.364C82.0805 611.036 81.4325 609.224 80.1365 607.928C78.8405 606.632 77.0285 605.984 74.7005 605.984H71.7845V620.672H74.7005ZM110.721 615.632C110.721 616.208 110.685 616.808 110.613 617.432H96.6807C96.7767 618.68 97.1727 619.64 97.8687 620.312C98.5887 620.96 99.4647 621.284 100.497 621.284C102.033 621.284 103.101 620.636 103.701 619.34H110.253C109.917 620.66 109.305 621.848 108.417 622.904C107.553 623.96 106.461 624.788 105.141 625.388C103.821 625.988 102.345 626.288 100.713 626.288C98.7447 626.288 96.9927 625.868 95.4567 625.028C93.9207 624.188 92.7207 622.988 91.8567 621.428C90.9927 619.868 90.5607 618.044 90.5607 615.956C90.5607 613.868 90.9807 612.044 91.8207 610.484C92.6847 608.924 93.8847 607.724 95.4207 606.884C96.9567 606.044 98.7207 605.624 100.713 605.624C102.657 605.624 104.385 606.032 105.897 606.848C107.409 607.664 108.585 608.828 109.425 610.34C110.289 611.852 110.721 613.616 110.721 615.632ZM104.421 614.012C104.421 612.956 104.061 612.116 103.341 611.492C102.621 610.868 101.721 610.556 100.641 610.556C99.6087 610.556 98.7327 610.856 98.0127 611.456C97.3167 612.056 96.8847 612.908 96.7167 614.012H104.421ZM123.004 620.24L127.36 605.912H133.912L126.784 626H119.188L112.06 605.912H118.648L123.004 620.24ZM155.439 615.632C155.439 616.208 155.403 616.808 155.331 617.432H141.399C141.495 618.68 141.891 619.64 142.587 620.312C143.307 620.96 144.183 621.284 145.215 621.284C146.751 621.284 147.819 620.636 148.419 619.34H154.971C154.635 620.66 154.023 621.848 153.135 622.904C152.271 623.96 151.179 624.788 149.859 625.388C148.539 625.988 147.063 626.288 145.431 626.288C143.463 626.288 141.711 625.868 140.175 625.028C138.639 624.188 137.439 622.988 136.575 621.428C135.711 619.868 135.279 618.044 135.279 615.956C135.279 613.868 135.699 612.044 136.539 610.484C137.403 608.924 138.603 607.724 140.139 606.884C141.675 606.044 143.439 605.624 145.431 605.624C147.375 605.624 149.103 606.032 150.615 606.848C152.127 607.664 153.303 608.828 154.143 610.34C155.007 611.852 155.439 613.616 155.439 615.632ZM149.139 614.012C149.139 612.956 148.779 612.116 148.059 611.492C147.339 610.868 146.439 610.556 145.359 610.556C144.327 610.556 143.451 610.856 142.731 611.456C142.035 612.056 141.603 612.908 141.435 614.012H149.139ZM164.843 599.36V626H158.687V599.36H164.843ZM178.448 626.288C176.48 626.288 174.704 625.868 173.12 625.028C171.56 624.188 170.324 622.988 169.412 621.428C168.524 619.868 168.08 618.044 168.08 615.956C168.08 613.892 168.536 612.08 169.448 610.52C170.36 608.936 171.608 607.724 173.192 606.884C174.776 606.044 176.552 605.624 178.52 605.624C180.488 605.624 182.264 606.044 183.848 606.884C185.432 607.724 186.68 608.936 187.592 610.52C188.504 612.08 188.96 613.892 188.96 615.956C188.96 618.02 188.492 619.844 187.556 621.428C186.644 622.988 185.384 624.188 183.776 625.028C182.192 625.868 180.416 626.288 178.448 626.288ZM178.448 620.96C179.624 620.96 180.62 620.528 181.436 619.664C182.276 618.8 182.696 617.564 182.696 615.956C182.696 614.348 182.288 613.112 181.472 612.248C180.68 611.384 179.696 610.952 178.52 610.952C177.32 610.952 176.324 611.384 175.532 612.248C174.74 613.088 174.344 614.324 174.344 615.956C174.344 617.564 174.728 618.8 175.496 619.664C176.288 620.528 177.272 620.96 178.448 620.96ZM198.382 608.756C198.982 607.82 199.81 607.064 200.866 606.488C201.922 605.912 203.158 605.624 204.574 605.624C206.23 605.624 207.73 606.044 209.074 606.884C210.418 607.724 211.474 608.924 212.242 610.484C213.034 612.044 213.43 613.856 213.43 615.92C213.43 617.984 213.034 619.808 212.242 621.392C211.474 622.952 210.418 624.164 209.074 625.028C207.73 625.868 206.23 626.288 204.574 626.288C203.182 626.288 201.946 626 200.866 625.424C199.81 624.848 198.982 624.104 198.382 623.192V635.576H192.226V605.912H198.382V608.756ZM207.166 615.92C207.166 614.384 206.734 613.184 205.87 612.32C205.03 611.432 203.986 610.988 202.738 610.988C201.514 610.988 200.47 611.432 199.606 612.32C198.766 613.208 198.346 614.42 198.346 615.956C198.346 617.492 198.766 618.704 199.606 619.592C200.47 620.48 201.514 620.924 202.738 620.924C203.962 620.924 205.006 620.48 205.87 619.592C206.734 618.68 207.166 617.456 207.166 615.92ZM242.292 605.696C244.788 605.696 246.768 606.452 248.232 607.964C249.72 609.476 250.464 611.576 250.464 614.264V626H244.344V615.092C244.344 613.796 243.996 612.8 243.3 612.104C242.628 611.384 241.692 611.024 240.492 611.024C239.292 611.024 238.344 611.384 237.648 612.104C236.976 612.8 236.64 613.796 236.64 615.092V626H230.52V615.092C230.52 613.796 230.172 612.8 229.476 612.104C228.804 611.384 227.868 611.024 226.668 611.024C225.468 611.024 224.52 611.384 223.824 612.104C223.152 612.8 222.816 613.796 222.816 615.092V626H216.66V605.912H222.816V608.432C223.44 607.592 224.256 606.932 225.264 606.452C226.272 605.948 227.412 605.696 228.684 605.696C230.196 605.696 231.54 606.02 232.716 606.668C233.916 607.316 234.852 608.24 235.524 609.44C236.22 608.336 237.168 607.436 238.368 606.74C239.568 606.044 240.876 605.696 242.292 605.696ZM273.705 615.632C273.705 616.208 273.669 616.808 273.597 617.432H259.665C259.761 618.68 260.157 619.64 260.853 620.312C261.573 620.96 262.449 621.284 263.481 621.284C265.017 621.284 266.085 620.636 266.685 619.34H273.237C272.901 620.66 272.289 621.848 271.401 622.904C270.537 623.96 269.445 624.788 268.125 625.388C266.805 625.988 265.329 626.288 263.697 626.288C261.729 626.288 259.977 625.868 258.441 625.028C256.905 624.188 255.705 622.988 254.841 621.428C253.977 619.868 253.545 618.044 253.545 615.956C253.545 613.868 253.965 612.044 254.805 610.484C255.669 608.924 256.869 607.724 258.405 606.884C259.941 606.044 261.705 605.624 263.697 605.624C265.641 605.624 267.369 606.032 268.881 606.848C270.393 607.664 271.569 608.828 272.409 610.34C273.273 611.852 273.705 613.616 273.705 615.632ZM267.405 614.012C267.405 612.956 267.045 612.116 266.325 611.492C265.605 610.868 264.705 610.556 263.625 610.556C262.593 610.556 261.717 610.856 260.997 611.456C260.301 612.056 259.869 612.908 259.701 614.012H267.405ZM289.193 605.696C291.545 605.696 293.417 606.464 294.809 608C296.225 609.512 296.933 611.6 296.933 614.264V626H290.813V615.092C290.813 613.748 290.465 612.704 289.769 611.96C289.073 611.216 288.137 610.844 286.961 610.844C285.785 610.844 284.849 611.216 284.153 611.96C283.457 612.704 283.109 613.748 283.109 615.092V626H276.953V605.912H283.109V608.576C283.733 607.688 284.573 606.992 285.629 606.488C286.685 605.96 287.873 605.696 289.193 605.696ZM312.407 620.78V626H309.275C307.043 626 305.303 625.46 304.055 624.38C302.807 623.276 302.183 621.488 302.183 619.016V611.024H299.735V605.912H302.183V601.016H308.339V605.912H312.371V611.024H308.339V619.088C308.339 619.688 308.483 620.12 308.771 620.384C309.059 620.648 309.539 620.78 310.211 620.78H312.407Z" fill="#126E82"/>
<path d="M252.5 312H125.5L62 422L125.5 532H252.5L316 422L252.5 312Z" fill="#126E82"/>
<path d="M136.75 514H242.25L295 422L242.25 330H136.75L84 422L136.75 514Z" fill="white"/>
<path d="M150 330H149V387H150V330Z" fill="#3F3D56"/>
<path d="M149 394C151.209 394 153 392.209 153 390C153 387.791 151.209 386 149 386C146.791 386 145 387.791 145 390C145 392.209 146.791 394 149 394Z" fill="#126E82"/>
<path d="M179 330H178V387H179V330Z" fill="#3F3D56"/>
<path d="M179 394C181.209 394 183 392.209 183 390C183 387.791 181.209 386 179 386C176.791 386 175 387.791 175 390C175 392.209 176.791 394 179 394Z" fill="#51C4D3"/>
<path d="M231 330H230V387H231V330Z" fill="#3F3D56"/>
<path d="M230 394C232.209 394 234 392.209 234 390C234 387.791 232.209 386 230 386C227.791 386 226 387.791 226 390C226 392.209 227.791 394 230 394Z" fill="#51C4D3"/>
<path d="M209 450C211.209 450 213 448.433 213 446.5C213 444.567 211.209 443 209 443C206.791 443 205 444.567 205 446.5C205 448.433 206.791 450 209 450Z" fill="#3F3D56"/>
<path d="M129 415C131.209 415 133 413.209 133 411C133 408.791 131.209 407 129 407C126.791 407 125 408.791 125 411C125 413.209 126.791 415 129 415Z" fill="#51C4D3"/>
<path d="M209 443H207.656V374.38H179V373H209V443Z" fill="#3F3D56"/>
<path d="M158.5 475C160.433 475 162 473.209 162 471C162 468.791 160.433 467 158.5 467C156.567 467 155 468.791 155 471C155 473.209 156.567 475 158.5 475Z" fill="#126E82"/>
<path d="M159 468H157.611V399.38H128V398H159V468Z" fill="#3F3D56"/>
<path d="M249 445C251.209 445 253 443.209 253 441C253 438.791 251.209 437 249 437C246.791 437 245 438.791 245 441C245 443.209 246.791 445 249 445Z" fill="#126E82"/>
<path d="M250 437H248.643V369.36H230V368H250V437Z" fill="#3F3D56"/>
<path d="M129.381 407H128V373H149V374.375H129.381V407Z" fill="#3F3D56"/>
<path d="M179 491C181.209 491 183 489.209 183 487C183 484.791 181.209 483 179 483C176.791 483 175 484.791 175 487C175 489.209 176.791 491 179 491Z" fill="#3F3D56"/>
<path d="M180 483H178.619V450.375H159V449H180V483Z" fill="#3F3D56"/>
<path d="M229 462C231.209 462 233 460.209 233 458C233 455.791 231.209 454 229 454C226.791 454 225 455.791 225 458C225 460.209 226.791 462 229 462Z" fill="#51C4D3"/>
<path d="M229.381 454H228V420H249V421.375H229.381V454Z" fill="#3F3D56"/>
<path d="M434.008 247.728L427.42 273H419.968L415.936 256.368L411.76 273H404.308L397.9 247.728H404.488L408.124 266.124L412.624 247.728H419.392L423.712 266.124L427.384 247.728H434.008ZM456.031 262.632C456.031 263.208 455.995 263.808 455.923 264.432H441.991C442.087 265.68 442.483 266.64 443.179 267.312C443.899 267.96 444.775 268.284 445.807 268.284C447.343 268.284 448.411 267.636 449.011 266.34H455.563C455.227 267.66 454.615 268.848 453.727 269.904C452.863 270.96 451.771 271.788 450.451 272.388C449.131 272.988 447.655 273.288 446.023 273.288C444.055 273.288 442.303 272.868 440.767 272.028C439.231 271.188 438.031 269.988 437.167 268.428C436.303 266.868 435.871 265.044 435.871 262.956C435.871 260.868 436.291 259.044 437.131 257.484C437.995 255.924 439.195 254.724 440.731 253.884C442.267 253.044 444.031 252.624 446.023 252.624C447.967 252.624 449.695 253.032 451.207 253.848C452.719 254.664 453.895 255.828 454.735 257.34C455.599 258.852 456.031 260.616 456.031 262.632ZM449.731 261.012C449.731 259.956 449.371 259.116 448.651 258.492C447.931 257.868 447.031 257.556 445.951 257.556C444.919 257.556 444.043 257.856 443.323 258.456C442.627 259.056 442.195 259.908 442.027 261.012H449.731ZM465.435 255.756C466.011 254.82 466.839 254.064 467.919 253.488C468.999 252.912 470.235 252.624 471.627 252.624C473.283 252.624 474.783 253.044 476.127 253.884C477.471 254.724 478.527 255.924 479.295 257.484C480.087 259.044 480.483 260.856 480.483 262.92C480.483 264.984 480.087 266.808 479.295 268.392C478.527 269.952 477.471 271.164 476.127 272.028C474.783 272.868 473.283 273.288 471.627 273.288C470.211 273.288 468.975 273.012 467.919 272.46C466.863 271.884 466.035 271.128 465.435 270.192V273H459.279V246.36H465.435V255.756ZM474.219 262.92C474.219 261.384 473.787 260.184 472.923 259.32C472.083 258.432 471.039 257.988 469.791 257.988C468.567 257.988 467.523 258.432 466.659 259.32C465.819 260.208 465.399 261.42 465.399 262.956C465.399 264.492 465.819 265.704 466.659 266.592C467.523 267.48 468.567 267.924 469.791 267.924C471.015 267.924 472.059 267.48 472.923 266.592C473.787 265.68 474.219 264.456 474.219 262.92ZM500.809 247.728C503.473 247.728 505.801 248.256 507.793 249.312C509.785 250.368 511.321 251.856 512.401 253.776C513.505 255.672 514.057 257.868 514.057 260.364C514.057 262.836 513.505 265.032 512.401 266.952C511.321 268.872 509.773 270.36 507.757 271.416C505.765 272.472 503.449 273 500.809 273H491.341V247.728H500.809ZM500.413 267.672C502.741 267.672 504.553 267.036 505.849 265.764C507.145 264.492 507.793 262.692 507.793 260.364C507.793 258.036 507.145 256.224 505.849 254.928C504.553 253.632 502.741 252.984 500.413 252.984H497.497V267.672H500.413ZM536.434 262.632C536.434 263.208 536.398 263.808 536.326 264.432H522.394C522.49 265.68 522.886 266.64 523.582 267.312C524.302 267.96 525.178 268.284 526.21 268.284C527.746 268.284 528.814 267.636 529.414 266.34H535.966C535.63 267.66 535.018 268.848 534.13 269.904C533.266 270.96 532.174 271.788 530.854 272.388C529.534 272.988 528.058 273.288 526.426 273.288C524.458 273.288 522.706 272.868 521.17 272.028C519.634 271.188 518.434 269.988 517.57 268.428C516.706 266.868 516.274 265.044 516.274 262.956C516.274 260.868 516.694 259.044 517.534 257.484C518.398 255.924 519.598 254.724 521.134 253.884C522.67 253.044 524.434 252.624 526.426 252.624C528.37 252.624 530.098 253.032 531.61 253.848C533.122 254.664 534.298 255.828 535.138 257.34C536.002 258.852 536.434 260.616 536.434 262.632ZM530.134 261.012C530.134 259.956 529.774 259.116 529.054 258.492C528.334 257.868 527.434 257.556 526.354 257.556C525.322 257.556 524.446 257.856 523.726 258.456C523.03 259.056 522.598 259.908 522.43 261.012H530.134ZM548.717 267.24L553.073 252.912H559.625L552.497 273H544.901L537.773 252.912H544.361L548.717 267.24ZM581.152 262.632C581.152 263.208 581.116 263.808 581.044 264.432H567.112C567.208 265.68 567.604 266.64 568.3 267.312C569.02 267.96 569.896 268.284 570.928 268.284C572.464 268.284 573.532 267.636 574.132 266.34H580.684C580.348 267.66 579.736 268.848 578.848 269.904C577.984 270.96 576.892 271.788 575.572 272.388C574.252 272.988 572.776 273.288 571.144 273.288C569.176 273.288 567.424 272.868 565.888 272.028C564.352 271.188 563.152 269.988 562.288 268.428C561.424 266.868 560.992 265.044 560.992 262.956C560.992 260.868 561.412 259.044 562.252 257.484C563.116 255.924 564.316 254.724 565.852 253.884C567.388 253.044 569.152 252.624 571.144 252.624C573.088 252.624 574.816 253.032 576.328 253.848C577.84 254.664 579.016 255.828 579.856 257.34C580.72 258.852 581.152 260.616 581.152 262.632ZM574.852 261.012C574.852 259.956 574.492 259.116 573.772 258.492C573.052 257.868 572.152 257.556 571.072 257.556C570.04 257.556 569.164 257.856 568.444 258.456C567.748 259.056 567.316 259.908 567.148 261.012H574.852ZM590.556 246.36V273H584.4V246.36H590.556ZM604.161 273.288C602.193 273.288 600.417 272.868 598.833 272.028C597.273 271.188 596.037 269.988 595.125 268.428C594.237 266.868 593.793 265.044 593.793 262.956C593.793 260.892 594.249 259.08 595.161 257.52C596.073 255.936 597.321 254.724 598.905 253.884C600.489 253.044 602.265 252.624 604.233 252.624C606.201 252.624 607.977 253.044 609.561 253.884C611.145 254.724 612.393 255.936 613.305 257.52C614.217 259.08 614.673 260.892 614.673 262.956C614.673 265.02 614.205 266.844 613.269 268.428C612.357 269.988 611.097 271.188 609.489 272.028C607.905 272.868 606.129 273.288 604.161 273.288ZM604.161 267.96C605.337 267.96 606.333 267.528 607.149 266.664C607.989 265.8 608.409 264.564 608.409 262.956C608.409 261.348 608.001 260.112 607.185 259.248C606.393 258.384 605.409 257.952 604.233 257.952C603.033 257.952 602.037 258.384 601.245 259.248C600.453 260.088 600.057 261.324 600.057 262.956C600.057 264.564 600.441 265.8 601.209 266.664C602.001 267.528 602.985 267.96 604.161 267.96ZM624.095 255.756C624.695 254.82 625.523 254.064 626.579 253.488C627.635 252.912 628.871 252.624 630.287 252.624C631.943 252.624 633.443 253.044 634.787 253.884C636.131 254.724 637.187 255.924 637.955 257.484C638.747 259.044 639.143 260.856 639.143 262.92C639.143 264.984 638.747 266.808 637.955 268.392C637.187 269.952 636.131 271.164 634.787 272.028C633.443 272.868 631.943 273.288 630.287 273.288C628.895 273.288 627.659 273 626.579 272.424C625.523 271.848 624.695 271.104 624.095 270.192V282.576H617.939V252.912H624.095V255.756ZM632.879 262.92C632.879 261.384 632.447 260.184 631.583 259.32C630.743 258.432 629.699 257.988 628.451 257.988C627.227 257.988 626.183 258.432 625.319 259.32C624.479 260.208 624.059 261.42 624.059 262.956C624.059 264.492 624.479 265.704 625.319 266.592C626.183 267.48 627.227 267.924 628.451 267.924C629.675 267.924 630.719 267.48 631.583 266.592C632.447 265.68 632.879 264.456 632.879 262.92ZM668.005 252.696C670.501 252.696 672.481 253.452 673.945 254.964C675.433 256.476 676.177 258.576 676.177 261.264V273H670.057V262.092C670.057 260.796 669.709 259.8 669.013 259.104C668.341 258.384 667.405 258.024 666.205 258.024C665.005 258.024 664.057 258.384 663.361 259.104C662.689 259.8 662.353 260.796 662.353 262.092V273H656.233V262.092C656.233 260.796 655.885 259.8 655.189 259.104C654.517 258.384 653.581 258.024 652.381 258.024C651.181 258.024 650.233 258.384 649.537 259.104C648.865 259.8 648.529 260.796 648.529 262.092V273H642.373V252.912H648.529V255.432C649.153 254.592 649.969 253.932 650.977 253.452C651.985 252.948 653.125 252.696 654.397 252.696C655.909 252.696 657.253 253.02 658.429 253.668C659.629 254.316 660.565 255.24 661.237 256.44C661.933 255.336 662.881 254.436 664.081 253.74C665.281 253.044 666.589 252.696 668.005 252.696ZM699.418 262.632C699.418 263.208 699.382 263.808 699.31 264.432H685.378C685.474 265.68 685.87 266.64 686.566 267.312C687.286 267.96 688.162 268.284 689.194 268.284C690.73 268.284 691.798 267.636 692.398 266.34H698.95C698.614 267.66 698.002 268.848 697.114 269.904C696.25 270.96 695.158 271.788 693.838 272.388C692.518 272.988 691.042 273.288 689.41 273.288C687.442 273.288 685.69 272.868 684.154 272.028C682.618 271.188 681.418 269.988 680.554 268.428C679.69 266.868 679.258 265.044 679.258 262.956C679.258 260.868 679.678 259.044 680.518 257.484C681.382 255.924 682.582 254.724 684.118 253.884C685.654 253.044 687.418 252.624 689.41 252.624C691.354 252.624 693.082 253.032 694.594 253.848C696.106 254.664 697.282 255.828 698.122 257.34C698.986 258.852 699.418 260.616 699.418 262.632ZM693.118 261.012C693.118 259.956 692.758 259.116 692.038 258.492C691.318 257.868 690.418 257.556 689.338 257.556C688.306 257.556 687.43 257.856 686.71 258.456C686.014 259.056 685.582 259.908 685.414 261.012H693.118ZM714.906 252.696C717.258 252.696 719.13 253.464 720.522 255C721.938 256.512 722.646 258.6 722.646 261.264V273H716.526V262.092C716.526 260.748 716.178 259.704 715.482 258.96C714.786 258.216 713.85 257.844 712.674 257.844C711.498 257.844 710.562 258.216 709.866 258.96C709.17 259.704 708.822 260.748 708.822 262.092V273H702.666V252.912H708.822V255.576C709.446 254.688 710.286 253.992 711.342 253.488C712.398 252.96 713.586 252.696 714.906 252.696ZM738.119 267.78V273H734.987C732.755 273 731.015 272.46 729.767 271.38C728.519 270.276 727.895 268.488 727.895 266.016V258.024H725.447V252.912H727.895V248.016H734.051V252.912H738.083V258.024H734.051V266.088C734.051 266.688 734.195 267.12 734.483 267.384C734.771 267.648 735.251 267.78 735.923 267.78H738.119Z" fill="#126E82"/>
<path d="M800.839 12.711H337.198V232.717H800.839V12.711Z" fill="#E6E6E6"/>
<path d="M787.581 31.5769H350.456V215.134H787.581V31.5769Z" fill="white"/>
<path d="M800.641 0H337V19.6968H800.641V0Z" fill="#126E82"/>
<path d="M351.637 15.2329C353.653 15.2329 355.288 13.5984 355.288 11.5822C355.288 9.56595 353.653 7.93146 351.637 7.93146C349.621 7.93146 347.986 9.56595 347.986 11.5822C347.986 13.5984 349.621 15.2329 351.637 15.2329Z" fill="#51C4D3"/>
<path d="M365.494 15.2329C367.51 15.2329 369.145 13.5984 369.145 11.5822C369.145 9.56595 367.51 7.93146 365.494 7.93146C363.478 7.93146 361.844 9.56595 361.844 11.5822C361.844 13.5984 363.478 15.2329 365.494 15.2329Z" fill="white"/>
<path d="M379.352 15.2329C381.368 15.2329 383.003 13.5984 383.003 11.5822C383.003 9.56595 381.368 7.93146 379.352 7.93146C377.336 7.93146 375.701 9.56595 375.701 11.5822C375.701 13.5984 377.336 15.2329 379.352 15.2329Z" fill="white"/>
<path d="M684.672 61.2792H611.996V185.434H684.672V61.2792Z" fill="#F2F2F2"/>
<path d="M599.955 61.2771H453.365V95.4522H599.955V61.2771Z" fill="#126E82"/>
<path d="M599.955 104.969H453.365V141.74H599.955V104.969Z" fill="#51C4D3"/>
<path d="M599.955 151.257H453.365V185.432H599.955V151.257Z" fill="#F2F2F2"/>
</svg>
