<svg width="996" height="675" viewBox="0 0 996 675" fill="none" xmlns="http://www.w3.org/2000/svg">
<g id="Thinker" clip-path="url(#clip0_10_4)">
<path id="Vector" d="M925 661.474H207V659.474H925V661.474Z" fill="#D8E3E7"/>
<g id="OrbitCircle">
<path id="Vector_2" d="M432.979 600.071C365.068 600.071 299.258 576.524 246.761 533.442C194.265 490.36 158.332 430.408 145.083 363.802C131.834 297.196 142.089 228.057 174.102 168.164C206.115 108.272 257.905 61.3328 320.646 35.3443C383.388 9.35579 453.199 5.92606 518.186 25.6395C583.173 45.3529 639.314 86.9898 677.043 143.456C714.773 199.922 731.756 267.723 725.099 335.307C718.443 402.891 688.559 466.076 640.538 514.096C613.345 541.439 580.998 563.116 545.37 577.874C509.743 592.631 471.542 600.176 432.979 600.071ZM432.979 15.2422C272.359 15.2422 141.685 145.916 141.685 306.536C141.685 467.156 272.359 597.83 432.979 597.83C593.598 597.83 724.272 467.156 724.272 306.536C724.272 145.916 593.598 15.2422 432.979 15.2422Z" fill="#D8E3E7"/>
</g>
<path id="white-circle" d="M266.925 666.849C343.651 666.849 405.849 604.651 405.849 527.925C405.849 451.199 343.651 389 266.925 389C190.199 389 128 451.199 128 527.925C128 604.651 190.199 666.849 266.925 666.849Z" fill="#F2F2F2"/>
<g id="Cube">
<path id="Vector_4" d="M585.859 359.395L585.826 359.411L441.152 439.97L282.73 360.759L280 359.395L288.222 194.954L431.285 93.0015L432.864 93.9885L580.926 186.732L585.859 359.395Z" fill="#126E82"/>
<path id="Vector_5" opacity="0.3" d="M585.826 359.411L441.152 439.971L282.73 360.76L423.063 262.376L585.826 359.411Z" fill="black"/>
<path id="Vector_6" opacity="0.1" d="M585.859 359.395L423.063 262.376L432.864 93.9885L580.926 186.732L585.859 359.395Z" fill="black"/>
<path id="Vector_7" d="M286.116 245.697L285.312 244.559L429.972 142.452L582.785 238.26L582.045 239.441L430.017 144.125L286.116 245.697Z" fill="#F2F2F2"/>
<path id="Vector_8" d="M283.312 301.561L282.53 300.41L426.456 202.694L426.833 202.908L582.914 291.368L582.226 292.58L426.522 204.333L283.312 301.561Z" fill="#F2F2F2"/>
<path id="Vector_9" d="M338.227 388.917L337.493 387.733L482.546 297.852V125.546H483.939V298.628L338.227 388.917Z" fill="#F2F2F2"/>
<path id="Vector_10" d="M395.16 417.38L394.42 416.2L534.089 328.597V157.831H535.482V329.368L395.16 417.38Z" fill="#F2F2F2"/>
<path id="Vector_11" d="M533.563 388.934L371.127 298.682L371.15 298.247L379.701 129.233L381.092 129.304L372.563 297.885L534.24 387.716L533.563 388.934Z" fill="#F2F2F2"/>
<path id="Vector_12" d="M482.458 417.406L321.846 333.24L321.871 332.793L331.339 163.694L332.73 163.772L323.288 332.423L483.105 416.173L482.458 417.406Z" fill="#F2F2F2"/>
</g>
<g id="GreenCircle">
<path id="Vector_13" d="M613.357 132.88C644.294 132.88 669.375 107.8 669.375 76.8623C669.375 45.9244 644.294 20.8443 613.357 20.8443C582.419 20.8443 557.339 45.9244 557.339 76.8623C557.339 107.8 582.419 132.88 613.357 132.88Z" fill="#106375"/>
</g>
<g id="Human">
<path id="Vector_14" opacity="0.1" d="M832.641 187.953L829.3 221.357L863.26 226.367L865.765 207.16L868.271 187.953H832.641Z" fill="#A1665E"/>
<path id="Vector_15" d="M832.641 187.953L829.3 221.357L863.26 226.367L865.765 207.16L868.271 187.953H832.641Z" fill="#C58C85"/>
<g id="Skin 1">
<path id="Vector_16" d="M884.137 360.815L896.942 395.888C896.942 395.888 883.58 435.971 896.942 437.085C910.303 438.198 911.973 398.671 911.973 398.671L904.736 356.361L884.137 360.815Z" fill="#D1A3A4"/>
<path id="Vector_17" d="M758.875 346.897L777.804 387.537C777.804 387.537 781.144 406.465 786.155 407.022C791.165 407.579 796.176 387.537 796.176 387.537L789.495 376.959L781.701 346.896L758.875 346.897Z" fill="#D1A3A4"/>
<path id="Vector_18" d="M851.291 198.809C866.049 198.809 878.013 186.845 878.013 172.087C878.013 157.329 866.049 145.365 851.291 145.365C836.532 145.365 824.568 157.329 824.568 172.087C824.568 186.845 836.532 198.809 851.291 198.809Z" fill="#D1A3A4"/>
<path id="Vector_19" d="M873.559 181.273C874.943 181.273 876.065 179.777 876.065 177.932C876.065 176.088 874.943 174.592 873.559 174.592C872.176 174.592 871.054 176.088 871.054 177.932C871.054 179.777 872.176 181.273 873.559 181.273Z" fill="#D1A3A4"/>
</g>
<path id="Vector_20" d="M890.261 246.13L899.725 255.595V300.689C899.725 300.689 905.292 309.04 904.179 311.267C903.066 313.493 901.952 313.493 903.066 315.164C904.179 316.834 905.292 317.947 904.179 319.061C903.637 319.783 903.344 320.662 903.344 321.566C903.344 322.469 903.637 323.348 904.179 324.071C905.292 325.184 907.519 326.855 905.849 328.525C904.179 330.195 901.952 329.081 904.179 335.205C906.406 341.329 910.303 342.999 909.189 345.226C908.076 347.453 908.076 353.02 908.076 353.02L884.137 356.361L879.127 293.452L890.261 246.13Z" fill="#D0CDE1"/>
<path id="Vector_21" d="M909.189 352.464L881.353 353.577L882.467 365.268L906.963 360.814L909.189 352.464Z" fill="#126E82"/>
<path id="Vector_22" d="M798.402 383.64L782.814 408.136C782.814 408.136 767.783 641.401 770.01 639.73C772.237 638.06 779.474 637.503 782.258 633.05C785.041 628.596 802.3 633.05 802.3 633.05L812.32 622.472V614.121C812.32 612.451 832.362 484.963 832.362 484.963V517.252C832.362 517.252 826.238 635.833 836.259 634.72C846.28 633.606 866.879 626.926 866.879 626.926C866.879 626.926 896.385 405.352 887.477 397.001C878.57 388.65 874.673 369.722 874.673 369.722L798.402 383.64Z" fill="#2F2E41"/>
<path id="Vector_23" d="M791.722 226.645L787.825 224.418C787.825 224.418 770.567 236.11 764.999 262.275C759.432 288.441 755.535 295.122 755.535 295.122C755.535 295.122 749.968 296.235 753.865 300.132C757.762 304.029 757.762 303.472 754.422 305.699C751.081 307.926 748.855 303.472 751.081 307.926C753.308 312.38 756.092 311.267 753.865 314.05C751.638 316.834 747.741 316.834 749.968 319.061C752.195 321.287 747.741 326.298 750.525 328.525C753.308 330.752 754.422 331.308 754.422 335.205C754.405 337.48 754.781 339.74 755.535 341.886H784.485C784.485 341.886 778.917 331.308 780.588 329.082C782.258 326.855 782.814 324.628 781.701 323.514C780.588 322.401 777.247 324.628 780.588 321.844C783.928 319.061 785.041 320.731 783.928 317.39C782.814 314.05 780.588 315.72 782.814 314.05C785.041 312.38 786.711 312.937 785.598 311.267C784.485 309.596 782.258 309.596 784.485 308.483C786.711 307.369 788.382 308.483 787.825 305.699C787.268 302.916 786.711 304.029 787.825 302.916C788.938 301.802 800.629 263.945 800.629 262.832C800.629 261.719 791.722 226.645 791.722 226.645Z" fill="#D0CDE1"/>
<path id="Vector_24" d="M786.155 339.659L751.081 341.886L759.989 350.237L784.485 350.794L786.155 339.659Z" fill="#126E82"/>
<path id="Vector_25" d="M796.176 381.413L788.938 394.774C788.938 394.774 810.65 397.558 818.444 400.341C826.238 403.125 846.28 407.022 846.28 407.022L851.291 387.537L796.176 381.413Z" fill="#126E82"/>
<path id="Vector_26" d="M859.641 387.537L865.765 405.909L890.261 400.898L887.477 383.64L859.641 387.537Z" fill="#126E82"/>
<path id="Vector_27" d="M869.662 207.717C869.662 207.717 867.992 206.604 864.095 208.83C860.198 211.057 847.394 212.171 841.27 205.49C835.146 198.809 830.692 193.242 829.022 194.356C827.352 195.469 826.238 208.274 826.238 208.274L820.671 212.727L787.825 224.418L790.608 299.576L795.619 316.834C795.619 316.834 791.722 330.195 796.732 337.989C801.743 345.783 793.949 348.567 793.949 348.567C793.949 348.567 792.279 350.794 793.392 356.361C794.505 361.928 792.279 382.527 792.279 382.527C792.279 382.527 839.6 403.682 889.148 385.31L883.58 364.155L880.797 316.834C880.797 316.834 883.58 309.04 883.024 305.699C882.467 302.359 899.725 255.595 899.725 255.595C899.725 255.595 896.942 232.213 882.467 227.202C867.992 222.192 865.765 217.181 865.765 217.181C865.765 217.181 872.446 209.944 869.662 207.717Z" fill="#D0CDE1"/>
<path id="Vector_28" d="M824.383 175.51C824.383 175.51 821.608 171.348 822.675 166.865C823.313 164.32 823.565 161.694 823.422 159.074C824.616 155.19 826.115 151.407 827.905 147.76C830.146 143.705 829.079 141.997 836.123 140.716C843.167 139.435 840.286 130.257 858.857 140.182C859.483 141.057 860.355 141.727 861.362 142.107C862.369 142.487 863.465 142.56 864.514 142.317C868.356 141.57 869.743 146.906 869.743 146.906C869.743 146.906 872.305 145.412 873.265 147.547C874.226 149.681 881.075 146.266 881.075 160.674C881.075 175.083 873.281 187.953 873.281 187.953C873.281 187.953 873.852 163.716 861.152 161.262C848.451 158.807 834.789 151.656 831.48 160.835C829.694 165.986 827.312 170.912 824.383 175.51Z" fill="#2F2E41"/>
<path id="Vector_29" d="M859.363 624.953L863.279 636.699C863.279 636.699 863.279 648.445 867.194 654.318C871.109 660.191 875.024 672.916 859.363 673.894C843.702 674.873 836.85 669 836.85 669C836.85 669 839.787 661.17 836.85 658.233C833.914 655.297 836.85 649.424 836.85 649.424L839.787 625.932L859.363 624.953Z" fill="#2F2E41"/>
<path id="Vector_30" d="M783.093 624.953L779.178 636.699C779.178 636.699 779.178 648.445 775.263 654.318C771.347 660.191 767.432 672.916 783.093 673.894C798.755 674.873 805.606 669 805.606 669C805.606 669 802.67 661.17 805.606 658.233C808.543 655.297 805.606 649.424 805.606 649.424L802.67 625.932L783.093 624.953Z" fill="#2F2E41"/>
</g>
</g>
<defs>
<clipPath id="clip0_10_4">
<rect width="996" height="674.005" fill="white"/>
</clipPath>
</defs>
</svg>
